<svg width="41" height="40" viewBox="0 0 41 40" fill="none" xmlns="http://www.w3.org/2000/svg">
<path d="M40.9726 5.39542C40.9726 8.37523 38.557 10.7915 35.5765 10.7915C32.5967 10.7915 30.1812 8.37528 30.1812 5.39542C30.1812 2.41556 32.5967 0 35.5765 0C38.557 0 40.9726 2.41561 40.9726 5.39542Z" fill="#28E98C"/>
<path d="M39.4067 38.4083C37.3015 40.5219 33.8821 40.5244 31.7735 38.4157C30.9404 37.5826 30.4371 36.5444 30.2625 35.4636C30.0786 34.5869 29.1921 30.9792 26.6543 28.4414C26.634 28.4206 26.6132 28.4003 26.593 28.3806C23.2018 25.0467 17.7796 25.0462 14.3884 28.3806C14.3682 28.4004 14.3484 28.4201 14.3281 28.4404C11.6859 31.083 10.8336 34.8846 10.7006 35.557C10.6941 35.5916 10.6872 35.6262 10.6808 35.6608C10.4835 36.6511 10.0064 37.597 9.24943 38.3717C7.15709 40.5121 3.74514 40.5467 1.61127 38.4473C-0.526582 36.3446 -0.53695 32.9064 1.57964 30.7898C2.40382 29.9656 3.42873 29.4638 4.49716 29.2848C5.30405 29.1187 8.98098 28.2446 11.5564 25.6687C11.5742 25.6509 11.5925 25.6326 11.6103 25.6143C14.6801 22.4975 14.6786 17.4995 11.6103 14.3807C11.5915 14.3614 11.5722 14.3426 11.5529 14.3234C8.97852 11.7489 5.30402 10.8743 4.49466 10.7072C3.42722 10.5277 2.4033 10.0264 1.5796 9.2027C-0.528566 7.09452 -0.526582 3.67461 1.58651 1.56941C3.69368 -0.529864 7.18327 -0.502207 9.25781 1.62974C10.0597 2.45345 10.5458 3.47094 10.7159 4.529C10.9003 5.40561 11.7863 9.01337 14.3246 11.5517C14.3449 11.5719 14.3651 11.5917 14.3859 11.6125C17.7771 14.9463 23.1993 14.9463 26.59 11.6125C26.6107 11.5922 26.631 11.5719 26.6508 11.5521L26.6676 11.5353C27.4339 10.7655 28.6764 10.7557 29.4462 11.5225C29.8304 11.9052 30.0222 12.406 30.0222 12.9078C30.0222 13.4141 29.8269 13.9214 29.4388 14.3075L29.4225 14.3238C29.3543 14.3921 29.287 14.4613 29.2208 14.531C26.33 17.5915 26.331 22.3962 29.2208 25.4576C29.288 25.5293 29.3563 25.5995 29.426 25.6692C32.0004 28.2436 35.6748 29.1188 36.4842 29.2854C37.5353 29.4618 38.5444 29.9509 39.3612 30.7523C41.4921 32.8412 41.5129 36.2947 39.4067 38.4083Z" fill="#1C1D20"/>
</svg>
