<svg width="118" height="41" viewBox="0 0 118 41" fill="none" xmlns="http://www.w3.org/2000/svg">
<path d="M40.9931 5.38838C40.9931 8.36971 38.5763 10.7872 35.5944 10.7872C32.6131 10.7872 30.1963 8.36975 30.1963 5.38838C30.1963 2.40702 32.6131 -0.00976562 35.5944 -0.00976562C38.5763 -0.00976563 40.9931 2.40706 40.9931 5.38838Z" fill="#1C1D20"/>
<path d="M39.4264 38.4179C37.3202 40.5326 33.8991 40.5351 31.7894 38.4254C30.9559 37.5919 30.4523 36.5531 30.2777 35.4717C30.0937 34.5947 29.2067 30.9851 26.6677 28.446C26.6474 28.4252 26.6266 28.4049 26.6063 28.3852C23.2134 25.0496 17.7885 25.0491 14.3956 28.3852C14.3754 28.405 14.3556 28.4247 14.3353 28.445C11.6918 31.089 10.839 34.8925 10.7059 35.5652C10.6995 35.5998 10.6926 35.6345 10.6861 35.6691C10.4887 36.6599 10.0114 37.6062 9.25407 38.3814C7.16067 40.5228 3.74702 40.5574 1.61208 38.457C-0.526846 36.3532 -0.537219 32.9133 1.58043 30.7956C2.40502 29.971 3.43045 29.4689 4.49941 29.2899C5.30671 29.1237 8.98548 28.2491 11.5622 25.6719C11.58 25.6541 11.5983 25.6358 11.6161 25.6175C14.6874 22.4991 14.6859 17.4985 11.6161 14.3782C11.5973 14.3589 11.578 14.3401 11.5587 14.3208C8.98302 11.7451 5.30667 10.87 4.49691 10.7029C3.42894 10.5233 2.40451 10.0217 1.58039 9.19758C-0.528831 7.08834 -0.526845 3.66669 1.5873 1.56043C3.69553 -0.539904 7.18687 -0.512233 9.26245 1.62079C10.0648 2.44492 10.5511 3.46292 10.7212 4.52152C10.9058 5.39857 11.7922 9.00816 14.3318 11.5477C14.352 11.568 14.3723 11.5878 14.3931 11.6086C17.786 14.9441 23.2109 14.9441 26.6033 11.6086C26.6241 11.5883 26.6444 11.568 26.6642 11.5482L26.681 11.5314C27.4477 10.7612 28.6908 10.7513 29.461 11.5186C29.8453 11.9014 30.0372 12.4025 30.0372 12.9046C30.0372 13.4111 29.8419 13.9186 29.4536 14.305L29.4373 14.3213C29.369 14.3896 29.3017 14.4588 29.2354 14.5286C26.3432 17.5906 26.3442 22.3977 29.2354 25.4607C29.3027 25.5324 29.371 25.6027 29.4407 25.6724C32.0164 28.2481 35.6927 29.1237 36.5025 29.2904C37.5541 29.467 38.5638 29.9562 39.3809 30.7581C41.5129 32.848 41.5337 36.3033 39.4264 38.4179Z" fill="#28E98C"/>
<path d="M61.3599 29.4714L56.1039 21.0671H55.597L48.34 10.6351H53.3292L58.5051 18.5324H59.012L66.269 29.4714H61.3599ZM47.9932 29.4714L54.9567 19.3862L58.1849 21.2005L52.7689 29.4714H47.9932ZM59.1721 20.5868L55.9438 18.7726L61.1731 10.6351H65.9488L59.1721 20.5868Z" fill="#1C1D20"/>
<path d="M68.1057 29.4714V16.5047H72.1878V29.4714H68.1057ZM70.1601 14.7172C69.5198 14.7172 68.9862 14.5037 68.5593 14.0768C68.1502 13.6322 67.9457 13.0986 67.9457 12.476C67.9457 11.8357 68.1502 11.3021 68.5593 10.8752C68.9862 10.4483 69.5198 10.2349 70.1601 10.2349C70.8004 10.2349 71.3251 10.4483 71.7342 10.8752C72.1433 11.3021 72.3479 11.8357 72.3479 12.476C72.3479 13.0986 72.1433 13.6322 71.7342 14.0768C71.3251 14.5037 70.8004 14.7172 70.1601 14.7172Z" fill="#1C1D20"/>
<path d="M81.3055 29.7649C79.9715 29.7649 78.762 29.4714 77.677 28.8844C76.6098 28.2797 75.7649 27.4615 75.1424 26.4298C74.5199 25.3982 74.2086 24.242 74.2086 22.9614C74.2086 21.6807 74.5199 20.5335 75.1424 19.5196C75.7649 18.5058 76.6098 17.7054 77.677 17.1184C78.7442 16.5136 79.9537 16.2113 81.3055 16.2113C82.6573 16.2113 83.8668 16.5047 84.934 17.0917C86.0012 17.6787 86.846 18.488 87.4686 19.5196C88.0911 20.5335 88.4024 21.6807 88.4024 22.9614C88.4024 24.242 88.0911 25.3982 87.4686 26.4298C86.846 27.4615 86.0012 28.2797 84.934 28.8844C83.8668 29.4714 82.6573 29.7649 81.3055 29.7649ZM81.3055 26.0563C81.8924 26.0563 82.4082 25.9318 82.8529 25.6828C83.2976 25.416 83.6355 25.0513 83.8668 24.5889C84.1158 24.1086 84.2403 23.5661 84.2403 22.9614C84.2403 22.3566 84.1158 21.8319 83.8668 21.3872C83.6177 20.9248 83.2709 20.569 82.8262 20.32C82.3994 20.0532 81.8924 19.9198 81.3055 19.9198C80.7363 19.9198 80.2294 20.0532 79.7847 20.32C79.34 20.569 78.9932 20.9248 78.7442 21.3872C78.4952 21.8497 78.3707 22.3833 78.3707 22.9881C78.3707 23.575 78.4952 24.1086 78.7442 24.5889C78.9932 25.0513 79.34 25.416 79.7847 25.6828C80.2294 25.9318 80.7363 26.0563 81.3055 26.0563Z" fill="#1C1D20"/>
<path d="M90.4346 29.4714V16.5047H94.5167V29.4714H90.4346ZM98.7321 29.4714V21.8942C98.7321 21.2361 98.5276 20.7291 98.1185 20.3734C97.7272 19.9999 97.238 19.8131 96.6511 19.8131C96.242 19.8131 95.8774 19.902 95.5572 20.0799C95.237 20.24 94.9791 20.4712 94.7835 20.7736C94.6056 21.076 94.5167 21.4495 94.5167 21.8942L92.9426 21.2005C92.9426 20.1688 93.1649 19.2884 93.6096 18.5591C94.0542 17.8121 94.659 17.2429 95.4238 16.8516C96.1886 16.4425 97.0513 16.2379 98.0118 16.2379C98.9189 16.2379 99.7282 16.4425 100.44 16.8516C101.169 17.2607 101.747 17.8299 102.174 18.5591C102.601 19.2884 102.814 20.1599 102.814 21.1738V29.4714H98.7321ZM107.03 29.4714V21.8942C107.03 21.2361 106.825 20.7291 106.416 20.3734C106.025 19.9999 105.536 19.8131 104.949 19.8131C104.539 19.8131 104.175 19.902 103.855 20.0799C103.535 20.24 103.277 20.4712 103.081 20.7736C102.903 21.076 102.814 21.4495 102.814 21.8942L100.466 21.574C100.502 20.4712 100.76 19.5285 101.24 18.7459C101.738 17.9455 102.387 17.3318 103.188 16.9049C104.006 16.4603 104.922 16.2379 105.936 16.2379C106.932 16.2379 107.812 16.4514 108.577 16.8783C109.36 17.2874 109.973 17.8832 110.418 18.6659C110.88 19.4307 111.112 20.3556 111.112 21.4406V29.4714H107.03Z" fill="#1C1D20"/>
<path d="M113.728 29.4714V16.5047H117.81V29.4714H113.728ZM115.782 14.7172C115.142 14.7172 114.608 14.5037 114.181 14.0768C113.772 13.6322 113.567 13.0986 113.567 12.476C113.567 11.8357 113.772 11.3021 114.181 10.8752C114.608 10.4483 115.142 10.2349 115.782 10.2349C116.422 10.2349 116.947 10.4483 117.356 10.8752C117.765 11.3021 117.97 11.8357 117.97 12.476C117.97 13.0986 117.765 13.6322 117.356 14.0768C116.947 14.5037 116.422 14.7172 115.782 14.7172Z" fill="#1C1D20"/>
</svg>
