<svg width="118" height="40" viewBox="0 0 118 40" fill="none" xmlns="http://www.w3.org/2000/svg">
<path d="M40.9924 5.38825C40.9924 8.36957 38.5756 10.7871 35.5936 10.7871C32.6123 10.7871 30.1956 8.36962 30.1956 5.38825C30.1956 2.40689 32.6123 -0.0098877 35.5936 -0.0098877C38.5756 -0.0098877 40.9924 2.40694 40.9924 5.38825Z" fill="#28E98C"/>
<path d="M39.4265 38.4178C37.3202 40.5325 33.8991 40.5349 31.7894 38.4252C30.9559 37.5917 30.4523 36.5529 30.2777 35.4715C30.0937 34.5945 29.2068 30.9849 26.6677 28.4458C26.6474 28.4251 26.6266 28.4047 26.6063 28.385C23.2134 25.0495 17.7885 25.049 14.3956 28.385C14.3754 28.4048 14.3556 28.4246 14.3353 28.4448C11.6918 31.0888 10.839 34.8923 10.7059 35.565C10.6995 35.5997 10.6926 35.6343 10.6861 35.6689C10.4888 36.6597 10.0114 37.606 9.25408 38.3812C7.16068 40.5226 3.74702 40.5572 1.61208 38.4568C-0.526846 36.3531 -0.53722 32.9131 1.58043 30.7955C2.40503 29.9709 3.43045 29.4688 4.49941 29.2897C5.30672 29.1235 8.98549 28.2489 11.5622 25.6717C11.58 25.6539 11.5983 25.6356 11.6161 25.6173C14.6874 22.499 14.6859 17.4984 11.6161 14.3781C11.5973 14.3588 11.578 14.34 11.5587 14.3207C8.98303 11.745 5.30668 10.8699 4.49691 10.7027C3.42894 10.5232 2.40451 10.0216 1.58039 9.19744C-0.528831 7.0882 -0.526846 3.66657 1.5873 1.56031C3.69553 -0.540026 7.18688 -0.512355 9.26246 1.62067C10.0648 2.44479 10.5511 3.46279 10.7212 4.52139C10.9058 5.39844 11.7922 9.00803 14.3318 11.5476C14.3521 11.5679 14.3723 11.5877 14.3931 11.6084C17.786 14.9439 23.211 14.9439 26.6033 11.6084C26.6241 11.5882 26.6444 11.5679 26.6642 11.5481L26.681 11.5313C27.4477 10.761 28.6908 10.7512 29.461 11.5184C29.8454 11.9013 30.0373 12.4024 30.0373 12.9044C30.0373 13.411 29.8419 13.9185 29.4536 14.3048L29.4373 14.3212C29.369 14.3894 29.3017 14.4587 29.2355 14.5284C26.3432 17.5904 26.3442 22.3976 29.2355 25.4605C29.3027 25.5323 29.371 25.6025 29.4408 25.6723C32.0164 28.248 35.6927 29.1236 36.5025 29.2902C37.5542 29.4668 38.5638 29.9561 39.3809 30.7579C41.513 32.8478 41.5337 36.3031 39.4265 38.4178Z" fill="white"/>
<path d="M61.3604 29.4715L56.1044 21.0672H55.5975L48.3405 10.6352H53.3297L58.5056 18.5326H59.0125L66.2695 29.4715H61.3604ZM47.9937 29.4715L54.9571 19.3863L58.1854 21.2006L52.7694 29.4715H47.9937ZM59.1726 20.5869L55.9443 18.7727L61.1736 10.6352H65.9493L59.1726 20.5869Z" fill="white"/>
<path d="M68.1062 29.4715V16.5049H72.1883V29.4715H68.1062ZM70.1606 14.7173C69.5203 14.7173 68.9867 14.5038 68.5598 14.0769C68.1507 13.6323 67.9462 13.0987 67.9462 12.4761C67.9462 11.8358 68.1507 11.3022 68.5598 10.8753C68.9867 10.4484 69.5203 10.235 70.1606 10.235C70.8009 10.235 71.3256 10.4484 71.7347 10.8753C72.1438 11.3022 72.3484 11.8358 72.3484 12.4761C72.3484 13.0987 72.1438 13.6323 71.7347 14.0769C71.3256 14.5038 70.8009 14.7173 70.1606 14.7173Z" fill="white"/>
<path d="M81.306 29.765C79.972 29.765 78.7625 29.4715 77.6775 28.8845C76.6103 28.2798 75.7654 27.4616 75.1429 26.4299C74.5204 25.3983 74.2091 24.2421 74.2091 22.9615C74.2091 21.6808 74.5204 20.5336 75.1429 19.5197C75.7654 18.5059 76.6103 17.7055 77.6775 17.1185C78.7447 16.5137 79.9542 16.2114 81.306 16.2114C82.6578 16.2114 83.8673 16.5049 84.9345 17.0918C86.0017 17.6788 86.8466 18.4881 87.4691 19.5197C88.0916 20.5336 88.4029 21.6808 88.4029 22.9615C88.4029 24.2421 88.0916 25.3983 87.4691 26.4299C86.8466 27.4616 86.0017 28.2798 84.9345 28.8845C83.8673 29.4715 82.6578 29.765 81.306 29.765ZM81.306 26.0564C81.893 26.0564 82.4088 25.9319 82.8534 25.6829C83.2981 25.4161 83.6361 25.0514 83.8673 24.589C84.1163 24.1087 84.2408 23.5662 84.2408 22.9615C84.2408 22.3567 84.1163 21.832 83.8673 21.3874C83.6183 20.9249 83.2714 20.5692 82.8268 20.3201C82.3999 20.0533 81.893 19.9199 81.306 19.9199C80.7368 19.9199 80.2299 20.0533 79.7852 20.3201C79.3406 20.5692 78.9937 20.9249 78.7447 21.3874C78.4957 21.8498 78.3712 22.3834 78.3712 22.9882C78.3712 23.5751 78.4957 24.1087 78.7447 24.589C78.9937 25.0514 79.3406 25.4161 79.7852 25.6829C80.2299 25.9319 80.7368 26.0564 81.306 26.0564Z" fill="white"/>
<path d="M90.4352 29.4715V16.5049H94.5172V29.4715H90.4352ZM98.7327 29.4715V21.8943C98.7327 21.2362 98.5281 20.7292 98.119 20.3735C97.7277 20 97.2386 19.8132 96.6516 19.8132C96.2425 19.8132 95.8779 19.9021 95.5577 20.08C95.2376 20.2401 94.9797 20.4713 94.784 20.7737C94.6061 21.0761 94.5172 21.4496 94.5172 21.8943L92.9431 21.2006C92.9431 20.169 93.1654 19.2885 93.6101 18.5592C94.0548 17.8122 94.6595 17.243 95.4243 16.8517C96.1892 16.4426 97.0518 16.2381 98.0123 16.2381C98.9194 16.2381 99.7287 16.4426 100.44 16.8517C101.169 17.2608 101.748 17.83 102.174 18.5592C102.601 19.2885 102.815 20.1601 102.815 21.1739V29.4715H98.7327ZM107.03 29.4715V21.8943C107.03 21.2362 106.826 20.7292 106.417 20.3735C106.025 20 105.536 19.8132 104.949 19.8132C104.54 19.8132 104.175 19.9021 103.855 20.08C103.535 20.2401 103.277 20.4713 103.082 20.7737C102.904 21.0761 102.815 21.4496 102.815 21.8943L100.467 21.5741C100.502 20.4713 100.76 19.5286 101.241 18.746C101.739 17.9456 102.388 17.3319 103.188 16.9051C104.006 16.4604 104.922 16.2381 105.936 16.2381C106.932 16.2381 107.813 16.4515 108.578 16.8784C109.36 17.2875 109.974 17.8833 110.419 18.666C110.881 19.4308 111.112 20.3557 111.112 21.4407V29.4715H107.03Z" fill="white"/>
<path d="M113.728 29.4715V16.5049H117.81V29.4715H113.728ZM115.782 14.7173C115.142 14.7173 114.609 14.5038 114.182 14.0769C113.773 13.6323 113.568 13.0987 113.568 12.4761C113.568 11.8358 113.773 11.3022 114.182 10.8753C114.609 10.4484 115.142 10.235 115.782 10.235C116.423 10.235 116.947 10.4484 117.357 10.8753C117.766 11.3022 117.97 11.8358 117.97 12.4761C117.97 13.0987 117.766 13.6323 117.357 14.0769C116.947 14.5038 116.423 14.7173 115.782 14.7173Z" fill="white"/>
</svg>
